<svg viewBox="-2.4 -2.4 28.80 28.80" fill="none"
    xmlns="http://www.w3.org/2000/svg" stroke="#ffff00">
    <g id="SVGRepo_bgCarrier" stroke-width="0">
        <rect x="-2.4" y="-2.4" width="28.80" height="28.80" rx="14.4" fill="#000000" strokewidth="0"></rect>
    </g>
    <g id="SVGRepo_tracerCarrier" stroke-linecap="round" stroke-linejoin="round"></g>
    <g id="SVGRepo_iconCarrier">
        <path d="M15.6311 7.15517C15.9018 7.05482 16.1945 7 16.5001 7C17.8808 7 19.0001 8.11929 19.0001 9.5C19.0001 10.8807 17.8808 12 16.5001 12C16.1945 12 15.9018 11.9452 15.6311 11.8448" stroke="#ffff00" stroke-width="1.104" stroke-linecap="round"></path>
        <path d="M3 19C3.69137 16.6928 5.46998 16 9.5 16C13.53 16 15.3086 16.6928 16 19" stroke="#ffff00" stroke-width="1.104" stroke-linecap="round"></path>
        <path d="M17 15C19.403 15.095 20.5292 15.6383 21 17" stroke="#ffff00" stroke-width="1.104" stroke-linecap="round"></path>
        <path d="M13 9.5C13 11.433 11.433 13 9.5 13C7.567 13 6 11.433 6 9.5C6 7.567 7.567 6 9.5 6C11.433 6 13 7.567 13 9.5Z" stroke="#ffff00" stroke-width="1.104"></path>
    </g>
</svg>