<svg xmlns="http://www.w3.org/2000/svg" width="48" height="48" viewBox="0 0 48 48" fill="none">
<path d="M21.7256 28.6575C23.337 29.0831 26.859 30.0133 27.4189 27.7633C27.9927 25.4627 24.577 24.6962 22.9103 24.3223C22.724 24.2805 22.5596 24.2436 22.4251 24.21L21.3406 28.5575C21.4511 28.5849 21.5806 28.6192 21.7256 28.6575Z" fill="url(#paint0_linear_2442_6158)"/>
<path d="M23.2452 22.3047C24.5887 22.6633 27.5193 23.4453 28.0298 21.4003C28.5511 19.3086 25.7027 18.678 24.3117 18.3701C24.1552 18.3355 24.0172 18.3049 23.9044 18.2768L22.9212 22.2199C23.0141 22.243 23.1231 22.2721 23.2452 22.3047Z" fill="url(#paint1_linear_2442_6158)"/>
<path fill-rule="evenodd" clip-rule="evenodd" d="M19.6424 41.4611C29.2864 43.8658 39.053 37.9973 41.4571 28.3544C43.8612 18.711 37.9932 8.94274 28.3498 6.53864C18.7087 4.13454 8.9421 10.0036 6.53913 19.6476C4.1339 29.2898 10.0024 39.057 19.6424 41.4611ZM27.9724 16.8942C30.4659 17.7531 32.2895 19.0407 31.9312 21.4358C31.6719 23.1891 30.6999 24.0379 29.4096 24.3354C31.1814 25.2579 32.0831 26.6726 31.2242 29.1251C30.1582 32.171 27.6259 32.428 24.2582 31.7907L23.4409 35.0661L21.466 34.5739L22.2726 31.3424C21.7608 31.2153 21.2376 31.0803 20.6988 30.934L19.8893 34.1808L17.9167 33.6886L18.734 30.407C18.5497 30.3598 18.3642 30.3114 18.1774 30.2627C17.8968 30.1895 17.6131 30.1156 17.3261 30.0436L14.756 29.4029L15.7365 27.1423C15.7365 27.1423 17.1916 27.5293 17.1719 27.5006C17.7311 27.639 17.9791 27.2745 18.077 27.0315L20.2932 18.1435C20.3174 17.7239 20.1728 17.1946 19.373 16.9949C19.4039 16.9741 17.9386 16.6383 17.9386 16.6383L18.464 14.5289L21.1876 15.209L21.1853 15.2191C21.5948 15.3209 22.0167 15.4176 22.4464 15.5155L23.2559 12.2722L25.2297 12.7644L24.4366 15.9441C24.9664 16.0651 25.4997 16.1871 26.0188 16.3165L26.8063 13.1575L28.7813 13.6497L27.9724 16.8942Z" fill="url(#paint2_linear_2442_6158)"/>
<defs>
<linearGradient id="paint0_linear_2442_6158" x1="6" y1="6" x2="6" y2="42" gradientUnits="userSpaceOnUse">
<stop stop-color="#F9AA4B"/>
<stop offset="1" stop-color="#F7931A"/>
</linearGradient>
<linearGradient id="paint1_linear_2442_6158" x1="6" y1="6" x2="6" y2="42" gradientUnits="userSpaceOnUse">
<stop stop-color="#F9AA4B"/>
<stop offset="1" stop-color="#F7931A"/>
</linearGradient>
<linearGradient id="paint2_linear_2442_6158" x1="6" y1="6" x2="6" y2="42" gradientUnits="userSpaceOnUse">
<stop stop-color="#F9AA4B"/>
<stop offset="1" stop-color="#F7931A"/>
</linearGradient>
</defs>
</svg>