<svg xmlns="http://www.w3.org/2000/svg" width="48" height="48" viewBox="0 0 48 48" fill="none">
<path fill-rule="evenodd" clip-rule="evenodd" d="M42 32C42 37.5228 37.5228 42 32 42C26.4772 42 22 37.5228 22 32C22 26.4772 26.4772 22 32 22C37.5228 22 42 26.4772 42 32ZM38.2764 28.8339C38.3754 28.9031 38.4735 28.9716 38.5704 29.0394C38.7606 29.164 38.7573 29.4001 38.7475 29.5148V29.5542L38.7245 29.587C38.2999 30.1968 37.8722 30.8221 37.4565 31.4297L37.4229 31.4788C37.2915 31.6701 37.1601 31.8622 37.0287 32.0543C36.9011 32.2409 36.7735 32.4275 36.6459 32.6132C36.3297 33.0735 36.0136 33.5346 35.6975 33.9957C35.3808 34.4575 35.0641 34.9194 34.7475 35.3804L32.1508 39.1673C32.0885 39.2788 31.9639 39.3476 31.8229 39.3476H31.7901C31.6393 39.3345 31.518 39.2492 31.4754 39.1181C30.9863 37.7551 30.489 36.3741 29.9985 35.0121C29.7953 34.4477 29.5932 33.8865 29.3934 33.3312C29.1765 32.728 28.9576 32.1198 28.7376 31.5084C28.0596 29.6244 27.3708 27.7102 26.695 25.8165L26.6885 25.7935V25.6427L26.6983 25.6165C26.7147 25.5738 26.7475 25.4984 26.8098 25.4394L26.8491 25.4066C26.8852 25.3837 26.9245 25.3673 26.9704 25.3607C27.1278 25.341 27.2754 25.3804 27.4032 25.4165C27.4426 25.4263 27.4786 25.4361 27.5147 25.446C28.2641 25.6281 29.0125 25.8103 29.7611 25.9924C30.4273 26.1546 31.0936 26.3167 31.7606 26.4788L32.172 26.5791C33.6038 26.928 35.0734 27.2861 36.5213 27.6361L36.5278 27.6394C36.6196 27.6689 36.695 27.7214 36.7606 27.7706C36.777 27.7804 36.7901 27.7902 36.8032 27.8001C37.2953 28.148 37.7963 28.4983 38.2764 28.8339ZM34.8569 30.7704C35.082 30.6527 35.3057 30.5356 35.5278 30.4197C36.2262 30.0525 36.9475 29.6755 37.6688 29.3083C37.4918 29.187 37.318 29.0656 37.1475 28.9443C36.9114 28.7771 36.6655 28.6066 36.4229 28.4394C36.3956 28.4716 36.3666 28.5 36.3384 28.5276C36.3293 28.5365 36.3202 28.5454 36.3114 28.5542L36.3114 28.5543C36.259 28.6066 36.2098 28.6558 36.1704 28.7083L36.1606 28.7181C36.1008 28.7821 36.0408 28.8463 35.9808 28.9106C35.5732 29.3468 35.1611 29.7879 34.7639 30.2165L33.6688 31.3902C34.067 31.1838 34.4639 30.9761 34.8569 30.7704ZM32.5245 31.8066C33.0065 31.2919 33.4918 30.7706 33.9606 30.2624C34.0981 30.1147 34.2366 29.9658 34.3758 29.8161C34.8606 29.2949 35.3542 28.7642 35.8459 28.2394C34.9106 28.0121 33.9746 27.7847 33.0385 27.5573C32.0713 27.3224 31.1041 27.0875 30.1377 26.8525C29.8 26.7673 29.4557 26.6853 29.1245 26.6066C28.7475 26.5181 28.3639 26.4263 27.9836 26.3279C28.0028 26.3512 28.022 26.3741 28.0411 26.397C28.0839 26.4482 28.1263 26.4988 28.1672 26.5509C28.1965 26.5865 28.2257 26.6227 28.2551 26.6591C28.3179 26.7367 28.3811 26.8149 28.4459 26.8886L28.4491 26.8919C28.6413 27.1232 28.8342 27.3551 29.0272 27.5872C29.2556 27.8617 29.484 28.1363 29.7114 28.4099C30.636 29.5214 31.5901 30.6722 32.5245 31.8066ZM32.3411 36.3725C32.3311 36.4663 32.3211 36.5598 32.3114 36.6525C32.2688 37.0394 32.2295 37.4361 32.1967 37.8296C32.459 37.4394 32.7278 37.0492 32.9901 36.6689C33.0919 36.5198 33.1962 36.3682 33.3011 36.2157C33.4361 36.0195 33.572 35.8219 33.7049 35.6263C34.1744 34.9464 34.6458 34.2586 35.1098 33.5815C35.2389 33.3933 35.3673 33.2059 35.495 33.0197C36.177 32.0197 36.8819 30.9935 37.5836 29.9771C36.8131 30.3804 36.036 30.787 35.2786 31.1804C34.532 31.5666 33.7885 31.956 33.0451 32.3454L33.0032 32.3673C32.9661 32.3896 32.929 32.4063 32.8919 32.423C32.8798 32.4284 32.8677 32.4338 32.8557 32.4394C32.8131 32.4558 32.7737 32.4755 32.7377 32.4951C32.718 32.787 32.6852 33.0788 32.6524 33.3607L32.6426 33.4394C32.6092 33.8149 32.5687 34.1976 32.5291 34.5713C32.5221 34.638 32.515 34.7045 32.5081 34.7706C32.4884 34.9525 32.4686 35.1402 32.4489 35.328C32.4391 35.4211 32.4294 35.5142 32.4196 35.6066C32.3956 35.8606 32.3682 36.118 32.3411 36.3725ZM27.6978 26.9837C27.7123 27.0232 27.7268 27.0626 27.7409 27.1017C28.4816 29.1642 29.2222 31.2238 29.9629 33.2834C30.3337 34.3145 30.7046 35.3456 31.0754 36.3771L31.4262 37.3509C31.4721 37.4853 31.5213 37.623 31.5704 37.7542C31.5767 37.7719 31.5835 37.7901 31.5905 37.8086C31.6015 37.838 31.6128 37.8682 31.6229 37.8984C31.6363 37.7734 31.649 37.6484 31.6616 37.524C31.6768 37.3744 31.692 37.2256 31.7081 37.0788L31.725 36.9191C31.7887 36.3202 31.8539 35.7065 31.9081 35.0984L31.9114 35.0755C31.9114 35.0755 31.9639 34.623 31.9868 34.423C31.9905 34.3904 31.9944 34.3575 31.9983 34.3245C32.0116 34.2119 32.0251 34.0978 32.0327 33.9837V33.9804C32.0582 33.7549 32.0804 33.5325 32.1027 33.3102L32.1049 33.2886C32.1192 33.1586 32.1329 33.0264 32.1468 32.8933C32.1679 32.6907 32.1893 32.4858 32.2131 32.282C32.1236 32.1829 32.0394 32.0801 31.9567 31.9791C31.9273 31.9432 31.898 31.9075 31.8688 31.8722C31.7836 31.7673 31.695 31.6591 31.6065 31.5574C31.3122 31.2009 31.0178 30.8471 30.7236 30.4934C30.5687 30.3072 30.4138 30.1211 30.259 29.9345C29.3901 28.8919 28.4983 27.8165 27.6131 26.7476C27.6394 26.8244 27.6686 26.9041 27.6978 26.9837Z" fill="#ED1C24"/>
<path fill-rule="evenodd" clip-rule="evenodd" d="M35.9967 20.6817C34.7465 20.2402 33.4013 20 32 20C31.073 20 30.1705 20.1051 29.3039 20.3041C28.2377 19.6483 25.709 19.1488 22.6006 19.0057L22.5982 19.0033V16.7749H27.6987V13.377H13.8128V16.7749H18.9133V19.0033C14.7678 19.1938 11.652 20.0137 11.652 20.9976C11.652 21.9815 14.7703 22.8015 18.9133 22.9944V30.1375H20.1437C20.0491 30.7445 20 31.3665 20 32C20 33.4013 20.2402 34.7465 20.6817 35.9967C12.5444 35.8273 6 29.1779 6 21C6 12.7157 12.7157 6 21 6C29.1779 6 35.8273 12.5444 35.9967 20.6817ZM22.6006 24.5393C23.0779 23.9387 23.6116 23.385 24.1936 22.886C23.6841 22.9325 23.1514 22.9691 22.6006 22.9944V24.5393ZM28.7489 20.4456C27.4232 20.8179 26.1904 21.4121 25.0931 22.1858C24.3349 22.2778 23.4944 22.3464 22.5982 22.3867V22.3843V22.3818C22.4945 22.3891 21.9591 22.4204 20.7678 22.4204C19.8152 22.4204 19.1473 22.3939 18.9109 22.3818V22.3843C15.2477 22.2227 12.5154 21.586 12.5154 20.8216C12.5154 20.0595 15.2501 19.4204 18.9109 19.2588V21.75C19.1497 21.7669 19.8369 21.8079 20.7847 21.8079C21.9229 21.8079 22.4921 21.7597 22.5982 21.75V19.2612C25.6287 19.3972 28.0195 19.8579 28.7489 20.4456Z" fill="#3CA478"/>
</svg>