<svg xmlns="http://www.w3.org/2000/svg" width="48" height="48" viewBox="0 0 48 48" fill="none">
<path fill-rule="evenodd" clip-rule="evenodd" d="M35.9967 20.6817C34.7465 20.2402 33.4013 20 32 20C31.073 20 30.1705 20.1051 29.3039 20.3041C28.2377 19.6483 25.709 19.1488 22.6006 19.0057L22.5982 19.0033V16.7749H27.6987V13.377H13.8128V16.7749H18.9133V19.0033C14.7678 19.1938 11.652 20.0137 11.652 20.9976C11.652 21.9815 14.7703 22.8015 18.9133 22.9944V30.1375H20.1437C20.0491 30.7445 20 31.3665 20 32C20 33.4013 20.2402 34.7465 20.6817 35.9967C12.5444 35.8273 6 29.1779 6 21C6 12.7157 12.7157 6 21 6C29.1779 6 35.8273 12.5444 35.9967 20.6817ZM22.6006 24.5393C23.0779 23.9387 23.6116 23.385 24.1936 22.886C23.6841 22.9325 23.1514 22.9691 22.6006 22.9944V24.5393ZM28.7489 20.4456C27.4232 20.8179 26.1904 21.4121 25.0931 22.1858C24.3349 22.2778 23.4944 22.3464 22.5982 22.3867V22.3843V22.3818C22.4945 22.3891 21.9591 22.4204 20.7678 22.4204C19.8152 22.4204 19.1473 22.3939 18.9109 22.3818V22.3843C15.2477 22.2227 12.5154 21.586 12.5154 20.8216C12.5154 20.0595 15.2501 19.4204 18.9109 19.2588V21.75C19.1497 21.7669 19.8369 21.8079 20.7847 21.8079C21.9229 21.8079 22.4921 21.7597 22.5982 21.75V19.2612C25.6287 19.3972 28.0195 19.8579 28.7489 20.4456Z" fill="#3CA478"/>
<path d="M32 42C37.5228 42 42 37.5228 42 32C42 26.4772 37.5228 22 32 22C26.4772 22 22 26.4772 22 32C22 37.5228 26.4772 42 32 42Z" fill="#F1EEF6"/>
<path d="M31.9974 24L31.8883 24.3645V34.9417L31.9974 35.0487L36.9952 32.1466L31.9974 24Z" fill="#63688C"/>
<path d="M31.9985 24L27.0008 32.1466L31.9985 35.0488V29.9149V24Z" fill="#8B92AF"/>
<path d="M31.9979 35.9784L31.9364 36.052V39.8199L31.9979 39.9964L36.9987 33.0776L31.9979 35.9784Z" fill="#63688C"/>
<path d="M31.9984 39.9964V35.9784L27.0006 33.0776L31.9984 39.9964Z" fill="#8B92AF"/>
<path d="M31.9974 35.0488L36.9951 32.1467L31.9974 29.915V35.0488Z" fill="#464A72"/>
<path d="M27.0006 32.1467L31.9983 35.0489V29.915L27.0006 32.1467Z" fill="#63688C"/>
</svg>