<svg xmlns="http://www.w3.org/2000/svg" width="48" height="48" viewBox="0 0 48 48" fill="none">
<path d="M41.5104 16.4479C39.7348 14.8032 37.2787 12.2917 35.2783 10.5104L35.1599 10.4273C34.963 10.2686 34.7409 10.1442 34.503 10.0592C29.6795 9.1567 7.23103 4.94707 6.79306 5.0005C6.67035 5.01775 6.55304 5.06238 6.4498 5.13113L6.33735 5.22019C6.19888 5.36126 6.09372 5.53169 6.02959 5.71893L6 5.79612V6.21768V6.28299C8.52715 13.3426 18.5056 36.4688 20.4705 41.8956C20.5888 42.2638 20.8137 42.9644 21.2339 43H21.3286C21.5535 43 22.5123 41.7294 22.5123 41.7294C22.5123 41.7294 39.652 20.8772 41.3861 18.6566C41.6105 18.383 41.8087 18.0888 41.9779 17.7778C42.0211 17.5345 42.0007 17.2841 41.9188 17.051C41.8369 16.818 41.6961 16.6102 41.5104 16.4479ZM26.9097 18.8763L34.2248 12.7904L38.5157 16.7566L26.9097 18.8763ZM24.0689 18.4785L11.4745 8.12359L31.8515 11.8939L24.0689 18.4785ZM25.2052 21.1919L38.0954 19.1078L23.3586 36.9201L25.2052 21.1919ZM9.7641 9.1567L23.0154 20.4378L21.0978 36.932L9.7641 9.1567Z" fill="#FF060A"/>
</svg>