<svg xmlns="http://www.w3.org/2000/svg" width="48" height="48" viewBox="0 0 48 48" fill="none">
<path fill-rule="evenodd" clip-rule="evenodd" d="M35.9967 20.6817C35.8273 12.5444 29.1779 6 21 6C12.7157 6 6 12.7157 6 21C6 29.1779 12.5444 35.8273 20.6817 35.9967C20.2402 34.7465 20 33.4013 20 32C20 30.8369 20.1655 29.7125 20.4742 28.6489C20.2431 28.6204 20.0627 28.422 20.0627 28.1837V26.7071C18.0119 26.4258 17.0158 25.2891 16.7463 23.7188C16.6994 23.4493 16.9103 23.2149 17.1799 23.2149H18.2463C18.4689 23.2149 18.6564 23.3789 18.7033 23.5899C18.9026 24.5157 19.4416 25.2305 21.0822 25.2305C21.5426 25.2305 21.9536 25.1316 22.2858 24.9534C22.5417 24.6013 22.8162 24.2636 23.1079 23.9419C23.1398 23.8158 23.1564 23.6826 23.1564 23.543C23.1564 22.5352 22.6526 22.1485 20.8713 21.8555C18.2463 21.5039 17.0041 20.7071 17.0041 18.6562C17.0041 17.0743 18.2112 15.8321 20.0627 15.5742V14.1212C20.0627 13.8633 20.2737 13.6524 20.5314 13.6524H21.4689C21.7267 13.6524 21.9377 13.8633 21.9377 14.1212V15.6094C23.4494 15.8789 24.4103 16.7344 24.7267 18.1641C24.7853 18.4337 24.5744 18.6797 24.2932 18.6797H23.3088C23.0978 18.6797 22.9221 18.5391 22.8635 18.3399C22.5939 17.4375 21.9494 17.0391 20.8244 17.0391C19.5823 17.0391 18.9377 17.6368 18.9377 18.4805C18.9377 19.3712 19.301 19.8164 21.2112 20.086C23.2984 20.3706 24.5714 20.9087 24.9805 22.2661C26.5241 21.151 28.3436 20.3941 30.317 20.1171C29.9178 16.5342 27.4937 13.5609 24.2109 12.3632C23.9882 12.2812 23.8125 12.0117 23.8125 11.7772V10.8984C23.8125 10.5468 24.0937 10.3476 24.4218 10.4531C28.6166 11.772 31.7341 15.4946 32.1919 20.0015C33.5241 20.0224 34.8037 20.2604 35.9967 20.6817ZM18.1875 31.4297C18.1875 31.7812 17.9062 31.9804 17.5782 31.875C13.0312 30.4218 9.75 26.1797 9.75 21.1523C9.75 16.1367 13.0312 11.8828 17.5782 10.4297C17.918 10.3242 18.1875 10.5234 18.1875 10.875V11.7539C18.1875 11.9883 18.0118 12.2578 17.7891 12.3398C14.1914 13.6641 11.625 17.1211 11.625 21.1523C11.625 25.1953 14.1914 28.6406 17.7891 29.9531C18.0118 30.0352 18.1875 30.3047 18.1875 30.5391V31.4297Z" fill="#3070DE"/>
<path d="M32 42C37.5228 42 42 37.5228 42 32C42 26.4772 37.5228 22 32 22C26.4772 22 22 26.4772 22 32C22 37.5228 26.4772 42 32 42Z" fill="#F1EEF7"/>
<path d="M31.9974 24L31.8883 24.3645V34.9417L31.9974 35.0487L36.9952 32.1466L31.9974 24Z" fill="#63688C"/>
<path d="M31.9985 24L27.0008 32.1466L31.9985 35.0488V29.9149V24Z" fill="#8B92AF"/>
<path d="M31.9979 35.9784L31.9364 36.052V39.8199L31.9979 39.9964L36.9987 33.0776L31.9979 35.9784Z" fill="#63688C"/>
<path d="M31.9984 39.9964V35.9784L27.0006 33.0776L31.9984 39.9964Z" fill="#8B92AF"/>
<path d="M31.9974 35.0488L36.9951 32.1467L31.9974 29.915V35.0488Z" fill="#464A72"/>
<path d="M27.0006 32.1467L31.9983 35.0489V29.915L27.0006 32.1467Z" fill="#63688C"/>
</svg>